HIERARCHY
ROOT Hips
{
	OFFSET 0.000000 0.000000 0.000000
	CHANNELS 6 Xposition Yposition Zposition Xrotation Yrotation Zrotation
	JOINT LeftUpLeg_virtual
	{
		OFFSET 0.000000 0.000000 0.000000
		CHANNELS 3 Xrotation Yrotation Zrotation
		JOINT LeftUpLeg
		{
			OFFSET 15.427100 -6.655098 0.678600
			CHANNELS 3 Xrotation Yrotation Zrotation
			JOINT LeftLeg
			{
				OFFSET 4.081073 -39.591068 13.024000
				CHANNELS 3 Xrotation Yrotation Zrotation
				JOINT LeftFoot
				{
					OFFSET -4.081074 -37.707932 -15.979700
					CHANNELS 3 Xrotation Yrotation Zrotation
					JOINT LeftToeBase
					{
						OFFSET 5.346399 -15.068900 20.645000
						CHANNELS 3 Xrotation Yrotation Zrotation
						JOINT LeftToe_End
						{
							OFFSET 2.754700 0.931300 11.300900
							CHANNELS 3 Xrotation Yrotation Zrotation
							End Site
							{
								OFFSET 0 0 0
							}
						}
					}
				}
			}
		}
	}
	JOINT RightUpLeg_virtual
	{
		OFFSET 0.000000 0.000000 0.000000
		CHANNELS 3 Xrotation Yrotation Zrotation
		JOINT RightUpLeg
		{
			OFFSET -15.569500 -6.655098 0.678600
			CHANNELS 3 Xrotation Yrotation Zrotation
			JOINT RightLeg
			{
				OFFSET -4.081825 -39.591045 13.023800
				CHANNELS 3 Xrotation Yrotation Zrotation
				JOINT RightFoot
				{
					OFFSET 4.081824 -37.707954 -15.979600
					CHANNELS 3 Xrotation Yrotation Zrotation
					JOINT RightToeBase
					{
						OFFSET -5.346400 -15.068900 20.645000
						CHANNELS 3 Xrotation Yrotation Zrotation
						JOINT RightToe_End
						{
							OFFSET -2.754700 0.931300 11.300900
							CHANNELS 3 Xrotation Yrotation Zrotation
							End Site
							{
								OFFSET 0 0 0
							}
						}
					}
				}
			}
		}
	}
	JOINT Spine_virtual
	{
		OFFSET 0.000000 0.000000 0.000000
		CHANNELS 3 Xrotation Yrotation Zrotation
		JOINT Spine
		{
			OFFSET -0.279200 12.230698 -2.892100
			CHANNELS 3 Xrotation Yrotation Zrotation
			JOINT Spine1
			{
				OFFSET -0.232667 10.192268 -1.242267
				CHANNELS 3 Xrotation Yrotation Zrotation
				JOINT Spine1_split
				{
					OFFSET -0.232667 10.192268 -1.242267
					CHANNELS 3 Xrotation Yrotation Zrotation
					JOINT Spine2
					{
						OFFSET -0.232667 10.192268 -1.242267
						CHANNELS 3 Xrotation Yrotation Zrotation
						JOINT Neck_virtual
						{
							OFFSET 0.000000 0.000000 0.000000
							CHANNELS 3 Xrotation Yrotation Zrotation
							JOINT Neck
							{
								OFFSET -0.418800 17.814194 8.416900
								CHANNELS 3 Xrotation Yrotation Zrotation
								JOINT Head
								{
									OFFSET 0.000000 7.031097 3.806800
									CHANNELS 3 Xrotation Yrotation Zrotation
									JOINT HeadTop_End
									{
										OFFSET 0.000000 24.646606 12.978600
										CHANNELS 3 Xrotation Yrotation Zrotation
										End Site
										{
											OFFSET 0 0 0
										}
									}
								}
							}
						}
						JOINT LeftShoulder_virtual
						{
							OFFSET 0.000000 0.000000 0.000000
							CHANNELS 3 Xrotation Yrotation Zrotation
							JOINT LeftShoulder
							{
								OFFSET 8.476499 7.247704 -3.868750
								CHANNELS 3 Xrotation Yrotation Zrotation
								JOINT LeftShoulder_split
								{
									OFFSET 8.476499 7.247704 -3.868750
									CHANNELS 3 Xrotation Yrotation Zrotation
									JOINT LeftArm
									{
										OFFSET 9.308998 -2.777710 0.208600
										CHANNELS 3 Xrotation Yrotation Zrotation
										JOINT LeftForeArm
										{
											OFFSET 29.972298 0.000000 0.000000
											CHANNELS 3 Xrotation Yrotation Zrotation
											JOINT LeftHand
											{
												OFFSET 26.026505 0.000000 0.000000
												CHANNELS 3 Xrotation Yrotation Zrotation
												End Site
												{
													OFFSET 0 0 0
												}
											}
										}
									}
								}
							}
						}
						JOINT RightShoulder_virtual
						{
							OFFSET 0.000000 0.000000 0.000000
							CHANNELS 3 Xrotation Yrotation Zrotation
							JOINT RightShoulder
							{
								OFFSET -7.570500 7.247704 -3.868750
								CHANNELS 3 Xrotation Yrotation Zrotation
								JOINT RightShoulder_split
								{
									OFFSET -7.570500 7.247704 -3.868750
									CHANNELS 3 Xrotation Yrotation Zrotation
									JOINT RightArm
									{
										OFFSET -9.308998 -2.777710 0.208500
										CHANNELS 3 Xrotation Yrotation Zrotation
										JOINT RightForeArm
										{
											OFFSET -29.972300 0.000000 0.000000
											CHANNELS 3 Xrotation Yrotation Zrotation
											JOINT RightHand
											{
												OFFSET -26.026505 0.000000 0.000000
												CHANNELS 3 Xrotation Yrotation Zrotation
												End Site
												{
													OFFSET 0 0 0
												}
											}
										}
									}
								}
							}
						}
					}
				}
			}
		}
	}
}
MOTION
Frames: 9
Frame Time: 0.03333333
0.314975 69.948227 0.095612 0.000000 0.000000 0.000000 -4.298824 -74.737132 -2.579686 -39.716758 10.786457 55.118401 35.985845 -4.449508 -8.876653 11.361962 -0.595022 -26.650971 -0.017721 -0.002769 -0.037419 0.000000 0.000000 0.000000 -4.298824 -74.737132 -2.579686 -38.209041 1.902061 -30.229304 56.605025 12.350019 -5.710720 -15.760551 -6.292929 24.821078 -0.005259 -0.000123 -0.000155 0.000000 0.000000 0.000000 -4.298824 -74.737132 -2.579686 2.947647 -0.497247 -2.259766 5.893830 -0.904735 -3.151098 0.000000 0.000000 0.000000 0.000000 0.000000 0.000000 5.893816 -0.904605 -3.151107 -2.451540 24.309799 7.456974 0.154237 27.772029 -8.534005 0.000000 0.000000 0.000000 5.893816 -0.904605 -3.151107 0.279787 -7.010227 -19.556601 0.000000 0.000000 0.000000 -39.504059 -20.309113 -2.427264 -5.614202 -32.071580 -2.800582 0.000000 0.000000 0.000000 5.893816 -0.904605 -3.151107 0.636235 13.855934 9.110356 0.000000 0.000000 0.000000 35.455259 67.114409 -18.850882 0.649654 83.885378 -11.766969 0.000000 0.000000 0.000000 
0.342135 70.232521 0.083536 0.000000 0.000000 0.000000 -5.289318 -75.155563 -3.565325 -38.684733 10.988310 55.016918 35.622561 -3.815585 -8.777354 11.299765 -0.554231 -27.008317 -0.017731 -0.002753 -0.037437 0.000000 0.000000 0.000000 -5.289318 -75.155563 -3.565325 -38.074801 1.805550 -29.929527 56.161070 12.510891 -5.707618 -15.414940 -6.128149 24.584632 -0.005277 -0.000108 -0.000161 0.000000 0.000000 0.000000 -5.289318 -75.155563 -3.565325 2.895352 -0.472231 -2.225238 5.790269 -0.823356 -3.057950 0.000000 0.000000 0.000000 0.000000 0.000000 0.000000 5.790281 -0.823173 -3.058012 -2.569101 24.400591 7.466807 0.176402 27.894272 -8.544352 0.000000 0.000000 0.000000 5.790281 -0.823173 -3.058012 0.268781 -7.020027 -19.607416 0.000000 0.000000 0.000000 -39.486881 -20.023367 -2.512436 -5.275126 -32.657136 -2.924885 0.000000 0.000000 0.000000 5.790281 -0.823173 -3.058012 0.634733 13.830899 9.149995 0.000000 0.000000 0.000000 35.145080 66.734807 -18.517005 1.797662 83.924010 -12.613999 0.000000 0.000000 0.000000 
0.423320 70.971764 0.005665 0.000000 0.000000 0.000000 -8.561751 -76.409436 -6.822940 -36.438984 12.106871 55.113008 34.495952 -2.650570 -8.572447 11.296115 -0.497425 -27.633511 -0.017850 -0.002763 -0.037722 0.000000 0.000000 0.000000 -8.561751 -76.409436 -6.822940 -37.798427 1.583252 -29.022194 55.037432 13.037723 -5.700929 -14.443745 -5.657038 23.851451 -0.005271 -0.000095 -0.000156 0.000000 0.000000 0.000000 -8.561751 -76.409436 -6.822940 2.731327 -0.393777 -2.144450 5.463876 -0.576414 -2.823615 0.000000 0.000000 0.000000 0.000000 0.000000 0.000000 5.463879 -0.576622 -2.823581 -2.878978 24.654575 7.494870 0.243573 28.241671 -8.588790 0.000000 0.000000 0.000000 5.463879 -0.576622 -2.823581 0.178885 -7.112257 -19.959756 0.000000 0.000000 0.000000 -38.090029 -18.526671 -4.022181 -4.376978 -34.383667 -3.671983 0.000000 0.000000 0.000000 5.463879 -0.576622 -2.823581 0.618018 13.645863 9.451069 0.000000 0.000000 0.000000 33.426652 66.007699 -15.519201 3.993498 82.618870 -14.043980 0.000000 0.000000 0.000000 
0.525779 71.921867 -0.157505 0.000000 0.000000 0.000000 -13.460461 -77.799652 -11.692556 -33.765040 13.630201 55.144154 32.854870 -1.274399 -8.326107 11.506967 -0.479813 -28.288550 -0.017912 -0.002753 -0.037854 0.000000 0.000000 0.000000 -13.460461 -77.799652 -11.692556 -37.171802 1.514635 -28.173444 53.462834 12.264406 -5.694940 -13.307486 -3.838700 23.691088 -0.005272 -0.000075 -0.000161 0.000000 0.000000 0.000000 -13.460461 -77.799652 -11.692556 2.625038 -0.329824 -2.048050 5.251880 -0.370022 -2.520962 0.000000 0.000000 0.000000 0.000000 0.000000 0.000000 5.251885 -0.369751 -2.520971 -3.341078 25.041036 7.539483 0.367114 28.770679 -8.674013 0.000000 0.000000 0.000000 5.251885 -0.369751 -2.520971 -0.007886 -7.332809 -20.527674 0.000000 0.000000 0.000000 -35.072687 -16.294446 -6.885072 -3.084742 -37.890123 -4.806802 0.000000 0.000000 0.000000 5.251885 -0.369751 -2.520971 0.583426 13.311853 10.010963 0.000000 0.000000 0.000000 29.395895 64.655704 -10.020303 5.849014 80.267400 -14.787233 0.000000 0.000000 0.000000 
0.636828 73.034286 -0.374533 0.000000 0.000000 0.000000 -19.278216 -78.845163 -17.465982 -31.224469 15.249355 54.627027 30.607065 -1.099684 -8.030531 12.081264 0.796914 -28.758447 -0.018155 -0.002771 -0.038387 0.000000 0.000000 0.000000 -19.278216 -78.845163 -17.465982 -36.063597 1.477435 -27.350762 51.600587 11.120977 -5.670241 -12.223771 -2.036446 23.680729 -0.005269 -0.000115 -0.000146 0.000000 0.000000 0.000000 -19.278216 -78.845163 -17.465982 2.715839 -0.341584 -1.928455 5.435072 -0.364689 -2.147214 0.000000 0.000000 0.000000 0.000000 0.000000 0.000000 5.435056 -0.364730 -2.147184 -3.904893 25.530402 7.599187 0.549390 29.440742 -8.814018 0.000000 0.000000 0.000000 5.435056 -0.364730 -2.147184 -0.300778 -7.717397 -21.169299 0.000000 0.000000 0.000000 -30.464604 -14.324754 -10.587059 -1.501567 -43.437554 -6.010363 0.000000 0.000000 0.000000 5.435056 -0.364730 -2.147184 0.540599 12.870447 10.783001 0.000000 0.000000 0.000000 24.293574 62.555708 -2.535451 7.088273 77.228314 -14.683588 0.000000 0.000000 0.000000 
0.763758 74.279350 -0.620586 0.000000 0.000000 0.000000 -24.966194 -79.068899 -23.089250 -29.044266 16.757932 53.773437 28.037426 -0.924293 -7.623662 13.033355 1.574106 -28.889764 -0.263592 -0.036953 0.123487 0.000000 0.000000 0.000000 -24.966194 -79.068899 -23.089250 -34.155614 1.350383 -26.633809 49.528656 10.087892 -5.613347 -11.332703 -1.132006 23.690999 -0.005274 -0.000095 -0.000156 0.000000 0.000000 0.000000 -24.966194 -79.068899 -23.089250 2.913293 -0.430153 -1.795132 5.831684 -0.560727 -1.716624 0.000000 0.000000 0.000000 0.000000 0.000000 0.000000 5.831684 -0.560695 -1.716634 -4.522944 26.093484 7.672544 0.795776 30.209947 -9.020416 0.000000 0.000000 0.000000 5.831684 -0.560695 -1.716634 -0.709163 -8.303021 -21.744093 0.000000 0.000000 0.000000 -24.571807 -14.103282 -14.471284 0.320377 -50.243609 -6.824120 0.000000 0.000000 0.000000 5.831684 -0.560695 -1.716634 0.495810 12.362373 11.721389 0.000000 0.000000 0.000000 19.366822 59.530576 4.934753 7.368334 72.767756 -13.528067 0.000000 0.000000 0.000000 
0.882195 75.566795 -0.722713 0.000000 0.000000 0.000000 -27.765737 -78.437059 -25.860602 -27.657371 17.497737 53.433444 26.390663 2.220818 -7.137131 14.253464 -2.365589 -28.000087 -0.114519 0.345371 -1.368094 0.000000 0.000000 0.000000 -27.765737 -78.437059 -25.860602 -31.558069 1.189127 -26.061162 47.270216 9.661581 -5.486296 -10.628469 -1.874427 23.725005 -0.005268 -0.000101 -0.000151 0.000000 0.000000 0.000000 -27.765737 -78.437059 -25.860602 3.132496 -0.629794 -1.620353 6.274742 -1.015818 -1.237420 0.000000 0.000000 0.000000 0.000000 0.000000 0.000000 6.274739 -1.016033 -1.237388 -5.149420 26.700207 7.757258 1.115010 31.036697 -9.304505 0.000000 0.000000 0.000000 6.274739 -1.016033 -1.237388 -1.237961 -9.130103 -22.113185 0.000000 0.000000 0.000000 -18.131103 -16.983453 -17.594023 2.276136 -57.117932 -6.833736 0.000000 0.000000 0.000000 6.274739 -1.016033 -1.237388 0.452588 11.827384 12.780979 0.000000 0.000000 0.000000 15.018809 55.768081 11.834431 7.313414 67.627725 -11.518055 0.000000 0.000000 0.000000 
0.954708 76.842323 -0.700714 0.000000 0.000000 0.000000 -24.991725 -77.280708 -23.075958 -27.633045 17.420485 52.062215 24.618353 2.844183 -6.570290 16.875618 -3.004172 -27.969801 -2.037317 -0.752919 -0.007110 0.000000 0.000000 0.000000 -24.991725 -77.280708 -23.075958 -28.869867 1.349223 -25.871484 44.866700 8.520753 -5.335333 -10.163619 -3.142112 24.417737 -0.005270 -0.000101 -0.000154 0.000000 0.000000 0.000000 -24.991725 -77.280708 -23.075958 3.210298 -0.890839 -1.393428 6.440316 -1.597138 -0.737858 0.000000 0.000000 0.000000 0.000000 0.000000 0.000000 6.440338 -1.597113 -0.737856 -5.734746 27.320427 7.851979 1.513983 31.879396 -9.680240 0.000000 0.000000 0.000000 6.440338 -1.597113 -0.737856 -1.788797 -10.261844 -21.614986 0.000000 0.000000 0.000000 -12.374392 -25.966038 -19.095032 3.799684 -63.542288 -4.138482 0.000000 0.000000 0.000000 6.440338 -1.597113 -0.737856 0.410383 11.305478 13.916958 0.000000 0.000000 0.000000 11.357521 51.489087 17.816706 7.074206 62.065471 -9.068829 0.000000 0.000000 0.000000 
1.073607 77.952995 -0.405457 0.000000 0.000000 0.000000 -20.873726 -75.579868 -19.040021 -28.714095 16.347011 51.081537 24.116553 2.620186 -6.185114 19.438423 -3.432169 -29.290313 -2.943393 -2.166673 1.428905 0.000000 0.000000 0.000000 -20.873726 -75.579868 -19.040021 -25.917597 1.641333 -25.894868 42.420840 7.532679 -5.125195 -9.711061 -5.321912 25.391522 -0.005271 -0.000093 -0.000162 0.000000 0.000000 0.000000 -20.873726 -75.579868 -19.040021 3.339365 -1.245399 -1.073162 6.711671 -2.358840 -0.226280 0.000000 0.000000 0.000000 0.000000 0.000000 0.000000 6.711695 -2.358917 -0.226263 -6.232529 27.925746 7.955168 2.001682 32.695979 -10.160017 0.000000 0.000000 0.000000 6.711695 -2.358917 -0.226263 -1.956085 -11.788683 -18.531551 0.000000 0.000000 0.000000 -8.445228 -40.943105 -16.373620 5.698845 -71.137131 0.901338 0.000000 0.000000 0.000000 6.711695 -2.358917 -0.226263 0.363960 10.835731 15.085342 0.000000 0.000000 0.000000 8.439649 46.984905 22.636266 6.729808 56.420935 -6.377737 0.000000 0.000000 0.000000 
